<svg width="24" height="24" xmlns="http://www.w3.org/2000/svg">

 <g>
  <title>background</title>
  <rect fill="none" id="canvas_background" height="402" width="582" y="-1" x="-1"/>
 </g>
 <g>
  <title>Layer 1</title>
  <path id="svg_2" fill="#c0392b" d="m12.031,2c-3.8657,0 -6.9998,3.099976 -6.9998,7c0,1.300049 0.4017,2.599976 1.0938,3.699951c0.0334,0.100098 0.059,0.100098 0.0938,0.200073l4.3432,8c0.204,0.599976 0.782,1.099976 1.438,1.099976s1.202,-0.5 1.406,-1.099976l4.844,-8.700073c0.499001,-1 0.781,-2.099976 0.781,-3.199951c0,-3.900024 -3.134,-7 -7,-7zm-0.031,3.900024c1.933,0 3.5,1.599976 3.5,3.5c0,2 -1.567,3.5 -3.5,3.5s-3.5,-1.5 -3.5,-3.5c0,-1.900024 1.567,-3.5 3.5,-3.5z"/>
  <path id="svg_3" fill="#e74c3c" d="m12.031,1.03125c-3.8657,0 -6.9998,3.133911 -6.9998,6.999939c0,1.382996 0.4017,2.664795 1.0938,3.749817c0.0334,0.052979 0.059,0.10498 0.0938,0.156982l4.3432,8.062012c0.204,0.585999 0.782,1.031006 1.438,1.031006s1.202,-0.445007 1.406,-1.031006l4.844,-8.75c0.499001,-0.963013 0.781,-2.059998 0.781,-3.218811c0,-3.866028 -3.134,-6.999939 -7,-6.999939zm-0.031,3.96875c1.933,0 3.5,1.567017 3.5,3.5s-1.567,3.5 -3.5,3.5s-3.5,-1.567017 -3.5,-3.5s1.567,-3.5 3.5,-3.5z"/>
 </g>
</svg>