<svg xmlns="http://www.w3.org/2000/svg" xmlns:xlink="http://www.w3.org/1999/xlink" width="100" height="100" viewBox="0 0 100 100">
  <defs>
    <clipPath id="clip-Artboard_1">
      <rect width="100" height="100"/>
    </clipPath>
  </defs>
  <g id="Artboard_1" data-name="Artboard – 1" clip-path="url(#clip-Artboard_1)">
    <rect id="Rectangle_1" data-name="Rectangle 1" width="100" height="100" rx="5" fill="#fff"/>
    <path id="Shape" d="M59.861,45.5h.005L42.309,15H59a1,1,0,0,0,.557-1.831l-17.92-12a1,1,0,0,0-1.323.187C29.3,14.471,29.981,13.48,30,14.049c.012.237-.344-.806,6.029,16.57L11.361,21.067a1,1,0,0,0-1.286,1.314L15.75,36.156,1.2,33.188a1,1,0,0,0-.962,1.627l22,25.833A1,1,0,0,0,23,61H47a1,1,0,0,0,.759-.35l12-14a.981.981,0,0,0,.1-1.15ZM38.822,52.77,7.754,36.566,55.47,46.3ZM41.269,3.33,55.709,13H33.146ZM40,15,57.028,44.577l-14.86-3.031L32.432,15Zm-.136,26.076L32.636,39.6,15.924,24.979l21.023,8.14ZM13.547,25.557,28.675,38.793,18.112,36.638ZM5.1,37.436l31.247,16.3L23.3,58.811ZM46.54,59H28.329L55.646,48.377Z" transform="translate(20 19.001)" fill="#00a676"/>
  </g>
</svg>
